<?xml version="1.0" encoding="UTF-8"?>
<svg width="512" height="150.272" xmlns="http://www.w3.org/2000/svg" xml:space="preserve" fill-rule="evenodd" stroke-linejoin="round" stroke-miterlimit="2" clip-rule="evenodd" viewBox="0 0 8092 2375">
  <style>
    /* Default fills render the full-colour lockup when the file is viewed
       directly. Consumers that inline this SVG can recolour any layer by
       setting the matching CSS custom property (e.g. --logo-wordmark) so the
       mark can follow a light/dark theme without shipping multiple files. */
    .background { fill: var(--logo-square, #264583); }
    .monogram  { fill: var(--logo-monogram, #ffffff); }
    .wordmark  { fill: var(--logo-wordmark, #264583); }
  </style>
  <g id="Wordmark">
    <path fill-rule="nonzero" d="M7800.624 414.256c-99.879 0-181.384 81.505-181.384 181.384s81.505 181.384 181.384 181.384 181.384-81.505 181.384-181.384-81.505-181.384-181.384-181.384m0 338.269c-87.158 0-156.885-69.727-156.885-156.885 0-87.63 69.727-157.356 156.885-157.356 87.63 0 157.356 69.727 157.356 157.356 0 87.158-69.727 156.885-157.356 156.885m65.015-196.46c0-29.21-23.556-52.295-53.237-52.295h-59.833v183.739h22.143v-78.678h30.152l43.815 78.678h24.97l-44.286-81.034c21.201-7.067 36.277-26.854 36.277-50.411Zm-90.927-29.681h37.69c16.961 0 30.623 13.192 30.623 29.681 0 16.961-13.663 30.623-30.623 30.623h-37.69z" class="wordmark"/>
    <g id="DESIGNS">
      <path fill-rule="nonzero" d="M7361.499 1944.398c86.318 0 153.923-40.443 153.923-127.364 0-85.111-74.849-114.084-140.644-140.04-52.515-19.92-99.598-39.235-99.598-83.903 0-45.272 39.235-65.795 85.111-65.795 56.137 0 94.769 21.73 115.292 52.515l36.821-37.425c-30.181-36.217-83.3-62.777-153.32-62.777-76.056 0-139.437 41.046-139.437 117.706 0 73.038 65.795 97.787 128.571 121.328 57.344 21.73 112.274 42.857 111.67 101.408-.604 50.704-42.857 71.831-96.579 71.831-62.173 0-114.688-30.181-132.797-75.453l-39.839 40.443c31.388 51.308 96.579 87.525 170.825 87.525Z" class="wordmark"/>
      <path fill-rule="nonzero" d="M6691.472 1485.645v364.587l-272.233-364.587h-52.515v452.716h54.93v-363.984l271.63 363.984h52.515v-452.716h-54.326Z" class="wordmark"/>
      <path fill-rule="nonzero" d="M5793.32 1532.124c48.893 0 97.183 20.523 128.571 54.93v-68.813c-37.425-23.541-82.696-38.632-130.382-38.632-124.95 0-228.169 93.561-228.169 234.205 0 140.04 103.219 234.205 229.376 234.205 47.082 0 91.75-15.091 129.175-38.632v-213.078h-153.923v49.497h105.03v130.986c-24.748 12.072-51.911 18.712-79.678 18.712-98.39 0-178.672-70.624-178.672-181.69s80.282-181.69 178.672-181.69" class="wordmark"/>
      <path fill-rule="nonzero" d="M5063.555 1485.645h54.93v452.716h-54.93z" class="wordmark"/>
      <path fill-rule="nonzero" d="M4464.807 1944.398c86.318 0 153.923-40.443 153.923-127.364 0-85.111-74.849-114.084-140.644-140.04-52.515-19.92-99.598-39.235-99.598-83.903 0-45.272 39.235-65.795 85.111-65.795 56.137 0 94.769 21.73 115.292 52.515l36.821-37.425c-30.181-36.217-83.3-62.777-153.32-62.777-76.056 0-139.437 41.046-139.437 117.706 0 73.038 65.795 97.787 128.571 121.328 57.344 21.73 112.274 42.857 111.67 101.408-.604 50.704-42.857 71.831-96.579 71.831-62.173 0-114.688-30.181-132.797-75.453l-39.839 40.443c31.388 51.308 96.579 87.525 170.825 87.525Z" class="wordmark"/>
      <path fill-rule="nonzero" d="M3849.114 1534.539v-48.893h-250.503v452.716h250.503v-48.893h-195.573v-152.716h170.221v-49.497h-170.221V1534.54z" class="wordmark"/>
      <path fill-rule="nonzero" d="M2800.641 1938.362h126.761c124.95 0 226.358-101.408 226.358-226.358s-101.408-226.358-226.358-226.358h-126.761zm54.93-48.893V1534.54h71.831c95.372 0 171.429 78.471 171.429 177.465s-76.056 177.465-171.429 177.465z" class="wordmark"/>
    </g>
    <path fill-rule="nonzero" d="M2800.636 436.649h107.18v883.346h-107.18z" class="wordmark"/>
    <path fill-rule="nonzero" d="m3861.83 436.649-332.14 492.318-330.96-492.318h-114.247v883.346h107.18v-726.7l336.85 509.986 340.382-511.163v727.877h106.001V436.65z" class="wordmark"/>
    <path fill-rule="nonzero" d="M4475.46 436.649h-323.893v883.346h107.18V931.323h216.713c137.802 0 248.515-108.357 248.515-246.16 0-136.624-110.713-248.514-248.515-248.514m-5.889 405.161h-210.825V532.05h210.825c83.624 0 155.47 64.779 155.47 154.291 0 93.046-70.668 155.47-155.47 155.47" class="wordmark"/>
    <path fill-rule="nonzero" d="M5216.293 919.545C5329.362 900.7 5416.52 805.299 5416.52 686.34c0-138.98-111.89-249.692-248.515-249.692H4844.11v883.346h107.18v-394.56h156.646l210.826 394.561h120.135zm-265.003-82.446V532.05h214.358c83.624 0 151.936 67.135 151.936 151.936s-67.134 153.113-151.936 153.113z" class="wordmark"/>
    <path fill-rule="nonzero" d="M6030.15 532.05v-95.4h-488.785v883.346h488.785v-95.401h-381.606V926.612h332.138v-96.58h-332.138V532.05z" class="wordmark"/>
    <path fill-rule="nonzero" d="M6474.179 1331.773c168.424 0 300.337-78.912 300.337-248.515 0-166.069-146.046-222.603-274.426-273.248-102.468-38.867-194.336-76.557-194.336-163.714 0-88.334 76.557-128.38 166.069-128.38 109.535 0 184.914 42.401 224.959 102.469l71.845-73.023c-58.89-70.668-162.535-122.491-299.16-122.491-148.402 0-272.07 80.09-272.07 229.67 0 142.513 128.38 190.803 250.87 236.737 111.89 42.4 219.07 83.623 217.892 197.87-1.178 98.934-83.623 140.157-188.447 140.157-121.313 0-223.781-58.89-259.115-147.224l-77.734 78.912c61.245 100.112 188.447 170.78 333.316 170.78" class="wordmark"/>
    <path fill-rule="nonzero" d="M7215.012 1331.773c168.424 0 300.337-78.912 300.337-248.515 0-166.069-146.046-222.603-274.426-273.248-102.468-38.867-194.336-76.557-194.336-163.714 0-88.334 76.557-128.38 166.069-128.38 109.535 0 184.914 42.401 224.959 102.469l71.845-73.023c-58.89-70.668-162.535-122.491-299.16-122.491-148.402 0-272.07 80.09-272.07 229.67 0 142.513 128.38 190.803 250.87 236.737 111.89 42.4 219.07 83.623 217.892 197.87-1.178 98.934-83.623 140.157-188.447 140.157-121.313 0-223.781-58.89-259.115-147.224l-77.734 78.912c61.245 100.112 188.447 170.78 333.316 170.78" class="wordmark"/>
  </g>
  <g id="Monogram">
    <path fill-rule="nonzero" d="M1533.273 315.369c0 201.925-139.901 365.618-312.894 365.618v1382.086h379.104c4.478-1365.946 568.775-1318.079 568.775-1318.079v-432.09h-634.986v2.466Z" class="monogram"/>
    <path fill-rule="nonzero" d="M846.573 315.369c0-.729.121-1.737.121-2.466H211.95v432.09s563.935-47.867 568.38 1318.079h379.138V680.986c-172.894 0-312.894-163.693-312.894-365.618" class="monogram"/>
    <path fill-rule="nonzero" d="M2168.255 745.001s-564.298-47.883-568.775 1318.079h-379.1V680.994c172.993 0 312.89-163.693 312.89-365.618v-2.466h634.986zM1159.463 2063.08H780.325c-4.444-1365.962-568.38-1318.079-568.38-1318.079v-432.09h634.761c0 .729-.137 1.72-.137 2.466 0 201.925 140.001 365.618 312.894 365.618v1382.086ZM2014.975 83.479H365c-154.042 0-279.294 125.493-279.294 279.277v1650.2c0 154.063 125.252 279.069 279.294 279.069h1649.975c153.888 0 279.298-125.006 279.298-279.069v-1650.2c0-153.784-125.41-279.277-279.298-279.277" class="background"/>
  </g>
</svg>
