<?xml version="1.0" encoding="UTF-8"?>
<svg width="512" height="512" xmlns="http://www.w3.org/2000/svg" xml:space="preserve" fill-rule="evenodd" stroke-linejoin="round" stroke-miterlimit="2" clip-rule="evenodd" viewBox="0 0 2209 2209">
  <style>
    .background { fill: #264583; }
    .monogram  { fill: #ffffff; }
  </style>
  <g id="Monogram">
    <path fill-rule="nonzero" d="M1447.567 231.889c0 201.925-139.901 365.618-312.894 365.618v1382.086h379.104c4.478-1365.946 568.775-1318.079 568.775-1318.079v-432.09h-634.986v2.466Z" class="monogram"/>
    <path fill-rule="nonzero" d="M760.866 231.889c0-.729.121-1.737.121-2.466H126.243v432.09s563.935-47.867 568.38 1318.079h379.138V597.506c-172.894 0-312.894-163.693-312.894-365.618" class="monogram"/>
    <path fill-rule="nonzero" d="M2082.548 661.522s-564.298-47.883-568.775 1318.079h-379.1V597.515c172.993 0 312.89-163.693 312.89-365.618v-2.466h634.986zM1073.756 1979.601H694.618c-4.444-1365.962-568.38-1318.079-568.38-1318.079v-432.09h634.761c0 .729-.137 1.72-.137 2.466 0 201.925 140.001 365.618 312.894 365.618v1382.086ZM1929.268 0H279.293C125.251 0-.001 125.493-.001 279.277v1650.2c0 154.063 125.252 279.069 279.294 279.069h1649.975c153.888 0 279.298-125.006 279.298-279.069v-1650.2C2208.566 125.493 2083.156 0 1929.268 0" class="background"/>
  </g>
</svg>
