<?xml version="1.0"?>
<svg width="14.693894mm" height="14.693903mm" viewBox="0 0 14.693894 14.693903" version="1.1" xmlns="http://www.w3.org/2000/svg">
  <style>
    .background { fill: #264583; }
    .monogram  { fill: #ffffff; }
  </style>
  <defs>
    <clipPath clipPathUnits="userSpaceOnUse" id="clipPath260">
      <path d="m 117.301,624.082 v -0.047 c 0,-3.808 -2.639,-6.895 -5.902,-6.895 v 0 -26.066 h 7.15 c 0.084,25.762 10.727,24.858 10.727,24.858 v 0 8.15 z"></path>
    </clipPath>
    <clipPath clipPathUnits="userSpaceOnUse" id="clipPath264-0">
      <path d="m 92.381,624.082 v -8.15 c 0,0 10.636,0.904 10.719,-24.858 v 0 h 7.151 v 26.066 c -3.261,0 -5.901,3.087 -5.901,6.895 v 0 c 0,0.014 0.002,0.033 0.002,0.047 v 0 z"></path>
    </clipPath>
    <clipPath clipPathUnits="userSpaceOnUse" id="clipPath256-4">
      <path d="m 95.268,628.409 c -2.906,0 -5.268,-2.367 -5.268,-5.268 v 0 -31.122 c 0,-2.905 2.362,-5.263 5.268,-5.263 v 0 h 31.117 c 2.903,0 5.267,2.358 5.267,5.263 v 0 21.982 9.14 c 0,2.901 -2.364,5.268 -5.267,5.268 v 0 z"></path>
    </clipPath>
  </defs>
  <g transform="translate(-97.631251,-141.02291)">
    <path class="background" d="m 90,628.409 h 41.652 V 586.757 H 90 Z" transform="matrix(0.35277776,0,0,-0.35277776,65.88125,362.71164)" clip-path="url(#clipPath256-4)"></path>
    <path class="monogram" d="m 111.399,624.082 h 17.877 v -33.007 h -17.877 z" transform="matrix(0.35277776,0,0,-0.35277776,65.88125,362.71164)" clip-path="url(#clipPath260)"></path>
    <path class="monogram" d="m 92.381,624.082 h 17.87 v -33.007 h -17.87 z" transform="matrix(0.35277776,0,0,-0.35277776,65.88125,362.71164)" clip-path="url(#clipPath264-0)"></path>
  </g>
</svg>
